<?xml version="1.0" encoding="utf-8"?>
<!-- Generator: Adobe Illustrator 26.2.1, SVG Export Plug-In . SVG Version: 6.00 Build 0)  -->
<svg version="1.1" id="Layer_1" xmlns="http://www.w3.org/2000/svg" xmlns:xlink="http://www.w3.org/1999/xlink" x="0px" y="0px"
	 viewBox="0 0 792 110" style="enable-background:new 0 0 792 110;" xml:space="preserve">
<style type="text/css">
	.st0{fill:white;}
	.st1{fill:#1A428A;}
</style>
<g>
	<path class="st0" d="M83.2,86C76.1,92.8,66.9,96.3,55,96.3c-24.9,0-43.3-18.5-43.3-40.4c0-22,17.1-40.5,42-40.5
		c17.1,0,27.1,8.6,28.9,11.2l-7.7,10c-5.6-5.2-12.7-8.1-21.9-8.1c-15.1,0-25.6,11.8-25.6,27.8c0,15,12.5,26.9,27.8,26.9
		c11.9,0,18.8-4.4,21.4-6.7L83.2,86z"/>
	<path class="st0" d="M168.5,94.5l-6.8-14.2h-35.3l-6.8,14.2h-16.3l40.8-80.8l40.8,80.8H168.5z M144,43.6l-11.6,24.6h23.5L144,43.6z
		"/>
	<path class="st0" d="M210.1,94.5V17.1h17.4c19.6,0,33.8,5.8,33.8,25c0,15.4-9.9,25.7-31.1,25.7h-5.5v26.8L210.1,94.5L210.1,94.5z
		 M229.8,54.5c10.7,0,16-4.8,16-12.5c0-7.1-4.5-11.8-14.3-11.8h-6.8v24.3L229.8,54.5L229.8,54.5z"/>
	<path class="st0" d="M291.3,94.4V17.2h46.3v13.1h-31.7V47h25.5v13.2h-25.5v21.1h34.9v13.2H291.3z"/>
	<path class="st0" d="M471,94.5l-9.2-11c-3.3,4.6-10.7,12.2-23.1,12.2c-16.2,0-28.5-12.7-28.5-27.9c0-12.4,8-21.4,16.3-25.1
		c-1.4-2.2-3.8-5.9-3.8-10.2c0-9.4,6.5-16.8,17-16.8c9.7,0,14.4,5.6,17,7.9l-7.7,7.9c-1.9-1.6-5.9-4.8-9.3-4.8
		c-2.8,0-5.7,1.4-5.7,5.4c0,2.8,2.2,5.4,4.2,7.9l28-0.1l-2.6,10.7h-16.2l39.3,43.9L471,94.5L471,94.5z M433.5,51.4
		c-3,0.7-11.5,5.1-11.5,16.1c0,10.5,8.8,17.2,16.9,17.2c9.5,0,14.1-6.5,15.5-9.5L433.5,51.4z"/>
	<path class="st0" d="M543.4,94.5V17.1h19.1c16.2,0,29.6,4.2,29.6,20.5c0,6.6-6.5,12.9-11.2,14.8c7.1,1.6,17.6,8.1,17.6,18.8
		c0,14.5-10.5,23.3-32.2,23.3L543.4,94.5L543.4,94.5z M564.2,48.4c7.9,0,12.5-3.3,12.5-9.4c0-7-4.9-8.7-11.3-8.7H558v18.1
		L564.2,48.4L564.2,48.4z M569.1,81.3c9.6,0,13.8-3.8,13.8-10.5c0-4.8-5.1-9.2-14.4-9.2H558v19.7H569.1z"/>
	<path class="st0" d="M683.1,94.5l-6.8-14.2H641l-6.8,14.2h-16.3l40.8-80.8l40.8,80.8H683.1z M658.6,43.6l-11.6,24.6h23.5
		L658.6,43.6z"/>
	<path class="st0" d="M736,94.5V63.1l-29.2-46h16.4l20.6,33.3l20.5-33.3h16.2l-29.7,46v31.4L736,94.5L736,94.5z"/>
</g>
</svg>
